<!-- <svg xmlns="http://www.w3.org/2000/svg" viewBox="0 0 841.9 595.3">
    <g fill="#61DAFB">
        <path d="M666.3 296.5c0-32.5-40.7-63.3-103.1-82.4 14.4-63.6 8-114.2-20.2-130.4-6.5-3.8-14.1-5.6-22.4-5.6v22.3c4.6 0 8.3.9 11.4 2.6 13.6 7.8 19.5 37.5 14.9 75.7-1.1 9.4-2.9 19.3-5.1 29.4-19.6-4.8-41-8.5-63.5-10.9-13.5-18.5-27.5-35.3-41.6-50 32.6-30.3 63.2-46.9 84-46.9V78c-27.5 0-63.5 19.6-99.9 53.6-36.4-33.8-72.4-53.2-99.9-53.2v22.3c20.7 0 51.4 16.5 84 46.6-14 14.7-28 31.4-41.3 49.9-22.6 2.4-44 6.1-63.6 11-2.3-10-4-19.7-5.2-29-4.7-38.2 1.1-67.9 14.6-75.8 3-1.8 6.9-2.6 11.5-2.6V78.5c-8.4 0-16 1.8-22.6 5.6-28.1 16.2-34.4 66.7-19.9 130.1-62.2 19.2-102.7 49.9-102.7 82.3 0 32.5 40.7 63.3 103.1 82.4-14.4 63.6-8 114.2 20.2 130.4 6.5 3.8 14.1 5.6 22.5 5.6 27.5 0 63.5-19.6 99.9-53.6 36.4 33.8 72.4 53.2 99.9 53.2 8.4 0 16-1.8 22.6-5.6 28.1-16.2 34.4-66.7 19.9-130.1 62-19.1 102.5-49.9 102.5-82.3zm-130.2-66.7c-3.7 12.9-8.3 26.2-13.5 39.5-4.1-8-8.4-16-13.1-24-4.6-8-9.5-15.8-14.4-23.4 14.2 2.1 27.9 4.7 41 7.9zm-45.8 106.5c-7.8 13.5-15.8 26.3-24.1 38.2-14.9 1.3-30 2-45.2 2-15.1 0-30.2-.7-45-1.9-8.3-11.9-16.4-24.6-24.2-38-7.6-13.1-14.5-26.4-20.8-39.8 6.2-13.4 13.2-26.8 20.7-39.9 7.8-13.5 15.8-26.3 24.1-38.2 14.9-1.3 30-2 45.2-2 15.1 0 30.2.7 45 1.9 8.3 11.9 16.4 24.6 24.2 38 7.6 13.1 14.5 26.4 20.8 39.8-6.3 13.4-13.2 26.8-20.7 39.9zm32.3-13c5.4 13.4 10 26.8 13.8 39.8-13.1 3.2-26.9 5.9-41.2 8 4.9-7.7 9.8-15.6 14.4-23.7 4.6-8 8.9-16.1 13-24.1zM421.2 430c-9.3-9.6-18.6-20.3-27.8-32 9 .4 18.2.7 27.5.7 9.4 0 18.7-.2 27.8-.7-9 11.7-18.3 22.4-27.5 32zm-74.4-58.9c-14.2-2.1-27.9-4.7-41-7.9 3.7-12.9 8.3-26.2 13.5-39.5 4.1 8 8.4 16 13.1 24 4.7 8 9.5 15.8 14.4 23.4zM420.7 163c9.3 9.6 18.6 20.3 27.8 32-9-.4-18.2-.7-27.5-.7-9.4 0-18.7.2-27.8.7 9-11.7 18.3-22.4 27.5-32zm-74 58.9c-4.9 7.7-9.8 15.6-14.4 23.7-4.6 8-8.9 16-13 24-5.4-13.4-10-26.8-13.8-39.8 13.1-3.1 26.9-5.8 41.2-7.9zm-90.5 125.2c-35.4-15.1-58.3-34.9-58.3-50.6 0-15.7 22.9-35.6 58.3-50.6 8.6-3.7 18-7 27.7-10.1 5.7 19.6 13.2 40 22.5 60.9-9.2 20.8-16.6 41.1-22.2 60.6-9.9-3.1-19.3-6.5-28-10.2zM310 490c-13.6-7.8-19.5-37.5-14.9-75.7 1.1-9.4 2.9-19.3 5.1-29.4 19.6 4.8 41 8.5 63.5 10.9 13.5 18.5 27.5 35.3 41.6 50-32.6 30.3-63.2 46.9-84 46.9-4.5-.1-8.3-1-11.3-2.7zm237.2-76.2c4.7 38.2-1.1 67.9-14.6 75.8-3 1.8-6.9 2.6-11.5 2.6-20.7 0-51.4-16.5-84-46.6 14-14.7 28-31.4 41.3-49.9 22.6-2.4 44-6.1 63.6-11 2.3 10.1 4.1 19.8 5.2 29.1zm38.5-66.7c-8.6 3.7-18 7-27.7 10.1-5.7-19.6-13.2-40-22.5-60.9 9.2-20.8 16.6-41.1 22.2-60.6 9.9 3.1 19.3 6.5 28.1 10.2 35.4 15.1 58.3 34.9 58.3 50.6-.1 15.7-23 35.6-58.4 50.6zM320.8 78.4z"/>
        <circle cx="420.9" cy="296.5" r="45.7"/>
        <path d="M520.5 78.1z"/>
    </g>
</svg> -->
<svg xmlns="http://www.w3.org/2000/svg" width="150" height="50" viewBox="0,0,150,50"><path fill="#333" d="M115.70 40.27L115.69 40.26L113.23 33.34L113.14 33.26Q108.94 20.83 103.00 14.43L102.87 14.30L102.91 14.34Q104.98 15.47 107.57 16.08L107.46 15.97L107.49 15.99Q112.62 22.26 116.96 35.02L117.05 35.11L117.08 35.14Q120.08 26.98 120.76 25.38L120.75 25.37L120.81 25.43Q123.15 19.77 125.97 16.46L125.97 16.47L125.94 16.44Q128.09 16.15 130.71 15.27L130.64 15.20L130.65 15.21Q125.95 19.69 122.91 26.92L122.96 26.97L123.09 27.10Q121.53 30.61 117.84 40.13L118.00 40.29L117.82 40.11Q117.24 40.09 116.67 40.06L116.81 40.20L116.70 40.09Q116.25 40.21 115.68 40.25ZM120.74 42.72L120.63 42.61L120.65 42.63Q123.42 32.61 124.99 28.58L124.90 28.50L125.03 28.62Q127.97 20.87 132.39 16.00L132.38 15.99L132.48 16.09Q131.44 16.45 129.35 17.18L129.29 17.12L130.50 15.86L130.50 15.86Q131.01 15.11 131.62 14.47L131.62 14.47L131.56 14.41Q128.83 15.48 125.82 16.05L125.88 16.11L125.77 16.00Q121.44 21.38 117.56 32.84L117.53 32.81L117.60 32.88Q113.88 22.69 110.68 18.31L110.69 18.31L110.76 18.39Q110.34 18.27 109.47 18.12L109.36 18.01L109.36 18.01Q109.26 17.76 107.66 15.71L107.67 15.72L107.54 15.59Q104.54 14.83 101.84 13.42L101.89 13.48L101.87 13.46Q108.54 20.59 112.92 33.38L112.98 33.44L112.89 33.34Q114.19 37.08 115.37 40.66L115.38 40.67L115.23 40.53Q115.69 40.67 116.52 40.56L116.62 40.66L116.61 40.65Q116.88 41.25 117.56 42.59L117.56 42.58L117.47 42.49Q118.40 42.52 119.13 42.59L119.08 42.54L119.17 42.64Q119.92 42.66 120.68 42.66Z"/><path d="M16 22 C54 46,55 2,145 11" stroke="#777" fill="none"/><path fill="#222" d="M48.24 14.37L48.16 14.28L48.19 14.32Q51.92 16.79 56.68 17.02L56.77 17.10L56.68 17.02Q61.41 17.29 65.67 15.54L65.60 15.47L65.53 15.40Q65.38 16.05 64.62 18.83L64.63 18.84L64.59 18.80Q61.80 19.77 58.83 19.93L58.82 19.92L58.84 19.94Q55.97 20.19 53.08 19.47L53.12 19.51L52.96 19.35Q53.68 23.00 53.87 26.65L54.02 26.81L53.83 26.62Q56.00 27.00 57.60 26.96L57.60 26.96L57.61 26.97Q58.80 26.94 61.19 26.82L61.14 26.76L61.13 26.76Q61.10 27.42 61.10 28.10L61.12 28.12L61.15 29.48L61.20 29.53Q58.72 29.45 53.92 29.53L53.95 29.55L53.99 29.59Q53.85 33.56 53.28 37.56L53.43 37.71L53.40 37.68Q56.03 37.03 58.77 37.15L58.66 37.04L58.69 37.07Q61.52 37.28 64.11 38.11L64.03 38.04L64.06 38.07Q64.01 38.74 64.28 39.50L64.40 39.62L64.88 41.17L64.90 41.19Q61.63 39.82 58.20 39.82L58.14 39.76L58.22 39.84Q53.24 39.73 48.98 41.98L49.05 42.05L49.06 42.06Q51.28 35.15 51.01 28.03L51.14 28.15L51.09 28.10Q50.87 20.99 48.21 14.33ZM48.63 42.85L48.61 42.83L48.63 42.85Q49.77 42.01 50.53 41.67L50.59 41.73L50.58 41.72Q50.33 42.42 49.76 43.94L49.89 44.07L49.76 43.94Q54.44 42.11 59.51 42.38L59.32 42.19L59.45 42.32Q64.54 42.54 68.54 45.25L68.62 45.33L68.62 45.33Q67.40 42.73 66.71 40.79L66.82 40.90L66.76 40.84Q65.76 40.22 64.77 39.88L64.81 39.92L64.81 39.91Q64.41 38.53 64.26 37.73L64.19 37.66L64.18 37.66Q61.17 36.74 58.01 36.74L57.89 36.61L57.99 36.71Q56.79 36.66 55.65 36.77L55.74 36.86L55.66 36.78Q55.89 35.64 55.92 34.42L55.88 34.38L55.83 31.74L55.98 31.89Q57.78 31.78 59.57 31.82L59.61 31.87L59.60 31.85Q61.26 31.72 63.04 31.87L63.22 32.05L63.12 31.95Q62.97 30.92 62.97 29.97L63.03 30.03L63.00 28.09L62.30 28.27L62.21 28.18Q61.78 28.24 61.32 28.24L61.33 28.25L61.33 28.25Q61.32 27.56 61.48 26.27L61.45 26.24L61.60 26.39Q60.04 26.65 58.85 26.69L58.86 26.70L58.78 26.62Q57.76 26.55 55.93 26.47L55.97 26.51L55.99 26.53Q55.86 25.06 55.67 22.25L55.71 22.29L55.62 22.20Q56.67 22.34 57.66 22.34L57.66 22.34L57.65 22.33Q62.43 22.38 66.12 20.48L66.10 20.46L66.19 20.55Q66.64 18.07 67.51 15.86L67.56 15.91L67.54 15.89Q66.27 16.78 65.43 17.12L65.44 17.14L65.44 17.13Q65.73 16.36 66.19 14.80L66.16 14.78L66.16 14.77Q61.58 16.97 56.71 16.66L56.63 16.59L56.62 16.58Q51.28 16.22 47.43 13.37L47.51 13.44L47.48 13.41Q50.52 20.52 50.82 28.14L50.66 27.97L50.80 28.12Q51.09 36.02 48.58 42.80Z"/><path fill="#333" d="M94.76 23.29L94.70 23.23L94.77 23.30Q93.11 19.28 86.90 19.47L86.77 19.34L86.74 19.31Q82.46 19.56 80.48 21.00L80.51 21.03L80.51 21.03Q78.00 22.67 78.00 26.78L77.98 26.76L78.08 28.73L78.02 28.66Q77.98 37.46 87.01 37.46L87.09 37.55L87.08 37.54Q89.06 37.46 90.55 36.66L90.69 36.81L90.67 36.79Q92.53 35.79 92.38 33.92L92.33 33.88L92.19 33.74Q92.11 31.75 88.41 30.84L88.31 30.73L86.43 30.79L86.53 30.90Q85.55 30.86 84.59 30.90L84.52 30.83L84.60 30.91Q84.49 29.85 84.46 27.95L84.59 28.08L84.50 27.99Q92.20 28.04 96.39 27.70L96.39 27.70L96.32 27.63Q96.26 28.44 96.26 29.24L96.32 29.30L96.37 29.36Q96.36 30.14 96.39 30.94L96.41 30.96L96.43 30.97Q95.18 30.83 95.18 30.83L95.15 30.80L95.25 30.89Q93.82 30.84 94.20 30.84L94.32 30.96L94.27 30.90Q95.38 32.55 95.76 34.53L95.68 34.45L95.81 34.58Q95.91 35.29 95.91 35.75L95.73 35.57L95.82 35.65Q95.75 40.23 86.96 40.23L86.96 40.23L86.97 40.25Q79.81 40.21 77.23 38.11L77.27 38.16L77.22 38.11Q75.25 35.76 75.25 30.70L75.42 30.87L75.32 30.77Q75.26 29.64 75.11 26.93L75.09 26.92L75.16 26.99Q75.00 24.62 75.04 23.25L75.07 23.28L75.06 23.27Q75.12 20.36 76.49 18.76L76.54 18.81L76.58 18.85Q79.16 16.83 84.03 16.64L83.97 16.58L86.56 16.42L86.69 16.55Q89.74 16.40 93.17 16.82L93.08 16.73L93.20 16.86Q96.87 17.25 97.82 20.48L97.83 20.50L97.96 20.63Q96.86 21.46 94.76 23.29ZM96.04 25.36L96.19 25.40L96.24 25.45Q97.46 24.39 99.33 22.41L99.37 22.45L99.26 22.34Q98.99 21.43 98.00 19.71L98.09 19.80L98.04 19.75Q96.80 17.03 92.99 16.38L93.09 16.48L93.01 16.40Q90.86 16.27 86.56 15.96L86.57 15.97L83.90 16.12L84.02 16.24Q78.68 16.27 76.09 18.25L76.12 18.28L76.27 18.43Q74.81 19.98 74.70 23.06L74.63 23.00L74.63 22.99Q74.66 22.57 74.89 28.05L75.06 28.22L74.92 28.08Q74.93 29.43 75.01 32.17L75.05 32.20L75.09 32.25Q75.23 36.65 76.98 38.59L77.08 38.69L76.94 38.55Q77.31 39.38 78.19 40.26L78.21 40.28L78.14 40.21Q81.07 42.11 86.59 42.46L86.59 42.45L89.57 42.73L89.53 42.68Q91.08 42.76 93.10 42.64L93.07 42.61L93.25 42.80Q94.54 42.56 96.64 42.03L96.75 42.14L96.74 42.13Q98.66 41.61 98.62 39.29L98.51 39.18L98.63 39.30Q98.52 37.94 97.45 35.16L97.62 35.33L97.58 35.29Q97.30 34.40 96.77 33.60L96.65 33.48L96.71 33.53Q97.26 33.51 98.44 33.70L98.49 33.76L98.57 33.83Q98.18 30.13 98.22 29.45L98.20 29.43L98.15 29.38Q97.83 29.44 97.41 29.41L97.39 29.39L97.33 29.32Q97.00 29.33 96.62 29.41L96.69 29.48L96.67 29.46Q96.63 28.32 96.70 27.25L96.81 27.35L96.65 27.19Q90.43 27.75 84.14 27.63L84.24 27.73L84.11 27.60Q84.28 28.65 84.28 29.56L84.12 29.40L84.29 31.32L84.26 31.29Q84.57 31.22 84.99 31.19L85.00 31.20L85.01 31.20Q85.52 31.30 85.98 31.30L85.94 31.26L85.80 31.12Q85.97 31.74 86.00 32.23L85.90 32.13L85.89 32.12Q85.88 32.56 85.84 33.06L85.85 33.07L85.96 33.18Q86.94 33.10 87.97 33.06L88.05 33.14L87.93 33.02Q88.93 32.99 89.96 33.03L90.02 33.10L89.99 33.06Q90.97 33.25 91.85 33.63L91.91 33.68L91.91 33.73L92.02 33.83Q92.08 35.27 90.41 36.18L90.40 36.17L90.43 36.21Q88.81 37.18 87.10 37.18L87.15 37.23L87.05 37.13Q83.31 37.23 80.87 35.48L80.82 35.43L80.74 35.34Q79.77 33.31 79.92 30.76L79.94 30.78L79.97 30.81Q80.25 25.98 82.09 23.99L82.11 24.00L82.16 24.06Q83.92 21.96 88.60 21.66L88.66 21.72L88.72 21.78Q92.29 21.47 94.23 23.26L94.20 23.22L94.17 23.20Q94.42 23.48 94.53 23.67L94.48 23.62L94.50 23.52L94.66 23.68Q95.14 24.28 95.71 25.39L95.74 25.41L96.22 25.55Z"/><path fill="#111" d="M32.36 40.85L32.40 40.89L32.53 41.03Q31.15 39.27 29.86 36.19L29.80 36.12L27.70 31.02L27.71 31.03Q26.23 35.15 25.62 36.44L25.44 36.25L25.54 36.36Q24.17 39.37 22.57 41.27L22.56 41.25L22.44 41.14Q22.11 41.19 21.35 41.30L21.41 41.36L21.27 41.23Q21.25 33.78 15.42 27.84L15.44 27.85L15.61 28.03Q13.70 26.04 11.68 24.55L11.80 24.67L11.66 24.54Q13.53 25.11 15.40 25.41L15.48 25.50L15.40 25.41Q21.50 30.41 22.95 36.66L22.96 36.67L23.05 36.76Q23.87 34.84 25.05 31.65L25.09 31.68L24.97 31.56Q26.47 27.96 27.04 26.66L26.95 26.57L28.29 26.50L28.45 26.67Q29.18 28.24 30.36 31.51L30.54 31.69L30.42 31.57Q31.69 35.16 32.34 36.57L32.42 36.65L32.45 36.68Q34.21 30.34 39.69 25.77L39.65 25.72L39.68 25.75Q40.89 25.67 43.63 25.09L43.74 25.21L43.57 25.04Q34.96 31.08 33.78 41.06L33.82 41.10L33.19 41.00L33.15 40.96Q32.89 41.01 32.55 41.05ZM35.51 43.47L37.58 43.68L37.45 43.55Q37.21 42.09 37.21 40.56L37.22 40.57L37.09 40.45Q37.15 37.27 38.56 34.04L38.58 34.06L38.49 33.97Q40.51 29.48 44.62 26.39L44.70 26.47L44.64 26.41Q43.48 26.73 41.61 27.07L41.56 27.03L41.53 26.99Q43.59 25.44 44.89 24.52L44.95 24.59L42.31 24.92L42.36 24.97Q41.07 25.13 39.74 25.28L39.74 25.28L39.70 25.24Q34.69 29.63 32.75 34.66L32.64 34.55L32.75 34.66Q32.09 32.48 30.72 28.21L30.68 28.17L30.62 28.12Q30.40 28.24 30.14 28.24L30.18 28.28L29.58 28.22L29.52 28.16Q29.47 27.91 28.67 26.16L28.56 26.05L26.67 26.22L26.52 26.07Q25.65 28.97 23.56 34.60L23.59 34.64L23.55 34.59Q22.31 31.00 19.23 27.72L19.19 27.69L19.08 27.57Q18.91 27.67 18.60 27.63L18.60 27.62L18.01 27.50L17.94 27.42Q17.22 26.74 15.43 25.14L15.39 25.10L15.29 25.00Q12.28 24.51 10.60 24.01L10.49 23.90L10.47 23.87Q21.27 31.41 20.89 41.72L20.96 41.79L20.93 41.76Q21.02 41.66 21.38 41.62L21.39 41.63L21.41 41.65Q21.89 41.73 22.08 41.73L22.08 41.73L22.06 41.71Q21.95 41.45 22.14 43.55L22.22 43.62L24.02 43.33L24.09 43.40Q26.65 40.55 28.89 34.80L28.94 34.84L29.05 34.95Q30.34 38.61 32.21 41.28L32.31 41.38L32.26 41.33Q32.59 41.31 32.85 41.33L32.96 41.43L32.96 41.44Q33.23 41.46 33.50 41.46L33.35 41.31L35.41 43.37Z"/></svg>